<svg width="460" height="469" viewBox="0 0 460 469" fill="none" xmlns="http://www.w3.org/2000/svg">
<g clip-path="url(#clip0_187_50)">
<path opacity="0.88" d="M153.486 222.949L149.551 229.484L170.018 241.755L173.954 235.22L153.486 222.949Z" fill="#865DA7"/>
<path opacity="0.7" d="M9.72723 52.3955L15.0801 48.6553L3.36726 31.9629L-1.98558 35.7031L9.72723 52.3955Z" fill="#865DA7"/>
<path opacity="0.91" d="M363.36 338.715L368.723 346.358L392.658 329.635L387.295 321.992L363.36 338.715Z" fill="#865DA7"/>
<path opacity="0.95" d="M324.041 253.628L318.453 258.828L334.737 276.252L340.325 271.053L324.041 253.628Z" fill="#865DA7"/>
<path opacity="0.85" d="M328.061 180.108L332.277 186.346L351.812 173.198L347.595 166.961L328.061 180.108Z" fill="#C42662"/>
<path opacity="0.86" d="M198.639 95.2503L205.348 92.5457L196.874 71.6186L190.166 74.3232L198.639 95.2503Z" fill="#865DA7"/>
<path opacity="0.74" d="M324.524 37.6115L319.709 43.1384L337.018 58.1523L341.833 52.6253L324.524 37.6115Z" fill="#865DA7"/>
<path opacity="0.91" d="M413.572 391.977L409.445 403.29L444.874 416.156L449 404.844L413.572 391.977Z" fill="#865DA7"/>
<path opacity="0.91" d="M424.732 313.507L432.066 313.252L431.266 290.38L423.932 290.636L424.732 313.507Z" fill="#A763F6"/>
<path opacity="0.74" d="M37.248 395.306L40.2148 389.496L22.0197 380.245L19.0529 386.055L37.248 395.306Z" fill="#FF327F"/>
<path opacity="0.94" d="M71.7737 236.833L79.1738 245.033L104.857 221.958L97.4569 213.757L71.7737 236.833Z" fill="#FF327F"/>
<path opacity="0.77" d="M320.323 401.31L310.912 404.544L321.039 433.889L330.449 430.656L320.323 401.31Z" fill="#FF327F"/>
<path opacity="0.88" d="M302.352 226.958L299.602 234.5L323.22 243.078L325.971 235.536L302.352 226.958Z" fill="#FF327F"/>
<path opacity="0.78" d="M171.555 448.077L164.633 450.189L171.247 471.774L178.169 469.663L171.555 448.077Z" fill="#F5C536"/>
<path opacity="0.79" d="M371.567 453.975L369.979 463.983L401.32 468.936L402.909 458.928L371.567 453.975Z" fill="#F5C536"/>
<path d="M304.086 294.139L295.832 291.932L288.92 317.672L297.174 319.879L304.086 294.139Z" fill="#F5C536"/>
<path opacity="0.77" d="M242.347 105.634L238.023 116.873L273.221 130.354L277.545 119.116L242.347 105.634Z" fill="#F5C536"/>
</g>
<defs>
<clipPath id="clip0_187_50">
<rect width="459.947" height="469" fill="white"/>
</clipPath>
</defs>
</svg>
