<svg width="1424" height="1434" viewBox="0 0 1424 1434" fill="none" xmlns="http://www.w3.org/2000/svg">
<path d="M675.014 198.791C676.023 198.15 677.069 197.548 678.15 196.984L959.978 34.579C1053 -24.6799 1244.5 156.32 1273.5 312.32C1206.94 359.548 1110.82 476.911 1078.5 500.82C1045.13 331.502 759.452 154.647 678.15 196.984L675.014 198.791Z" fill="#962E47"/>
<path d="M711 796.819C616.279 483.246 195.5 499.32 190 502.82C278.333 447.32 344.894 398.162 378.5 379.817C1033.5 22.2631 1284.5 1518.82 929.5 1429.82C906.737 1424.11 695.333 1288.32 569 1212.32C671 1273.32 820.5 1159.32 711 796.819Z" fill="#962E47"/>
<path fill-rule="evenodd" clip-rule="evenodd" d="M378.5 1085.58C310.55 1040.34 261 899.525 261 732.82C261 566.115 310.55 425.3 378.5 380.06V379.82L84.4987 564.594C80.9906 566.57 77.5567 568.73 74.204 571.064L73 571.82L73.0015 571.911C29.5183 602.901 0 663.338 0 732.82C0 807.912 34.4769 872.44 83.7981 900.649L378.5 1085.82V1085.58Z" fill="#FF406F"/>
<path fill-rule="evenodd" clip-rule="evenodd" d="M931.018 1432.04C794.747 1313.71 701 1062.6 701 748.802C701 411.7 809.188 141.074 962.061 32.8203L553.666 266.708C459.821 309.795 389 504.108 389 737.302C389 943.459 444.351 1119.23 522.028 1186.99L522 1187.8L525.328 1189.79C536.572 1199.08 548.266 1206.12 560.313 1210.68L931.018 1432.04Z" fill="#FF406F"/>
<path d="M883 1299C883.983 1299.51 884.997 1299.97 886.041 1300.4L1159.35 1425.45C1250.05 1471.92 1410.72 1289.15 1424 1143.31C1358.69 1105.62 1260.14 1006.02 1228.35 986.82C1212.2 1145.28 964.498 1332.32 886.041 1300.4L883 1299Z" fill="#ECB13F"/>
</svg>
